<svg xmlns="http://www.w3.org/2000/svg" viewBox="0 0 512 512" width="512" height="512">
  <!-- PWA icon = the website favicon's faceted gem, centred on the brand-dark tile. -->
  <rect width="512" height="512" rx="96" fill="#0f1115"/>
  <svg x="142" y="106" width="228" height="300" viewBox="0 0 32 42">
    <defs>
      <linearGradient id="r1" x1="0%" y1="0%" x2="100%" y2="100%">
        <stop offset="0%" stop-color="#5a4d8f"/>
        <stop offset="100%" stop-color="#2c2547"/>
      </linearGradient>
      <linearGradient id="r2" x1="100%" y1="0%" x2="0%" y2="100%">
        <stop offset="0%" stop-color="#221d36"/>
        <stop offset="100%" stop-color="#100d1c"/>
      </linearGradient>
      <linearGradient id="spec" x1="0%" y1="0%" x2="100%" y2="100%">
        <stop offset="0%" stop-color="#c8b8ff"/>
        <stop offset="100%" stop-color="#7c5cff"/>
      </linearGradient>
    </defs>
    <polygon points="16,0 0,15.1 16,18.5" fill="url(#r1)"/>
    <polygon points="16,0 32,15.1 16,18.5" fill="url(#r2)"/>
    <polygon points="0,15.1 16,18.5 7.7,42" fill="#151122"/>
    <polygon points="32,15.1 16,18.5 24.3,42" fill="#0a0810"/>
    <polygon points="16,18.5 7.7,42 24.3,42" fill="#0e0b1a"/>
    <polygon points="16,0 0,15.1 1.3,16 16,2.5" fill="url(#spec)" opacity="0.95"/>
    <polygon points="16,2.5 15,18.5 16,41.2 17,18.5" fill="#c8b8ff" opacity="0.5"/>
  </svg>
</svg>
